# xmcd
#
# Track frame offsets: 
#        150
#        21728
#        44003
#        66015
#        96454
#        120942
#        144173
#        166944
#        184761
#        204973
#        227197
#        244798
#        271499
#        291002
#        310083
#        332605
#
# Disc length: 4779 seconds
#
# Revision: 0
# Processed by: cddbd v1.5.2PL0 Copyright (c) Steve Scherf et al.
# Submitted via: ExactAudioCopyFreeDBPlugin 1.0
#
DISCID=e612a910
DTITLE=Various Artist - Blues Collection 2012
DYEAR=2012
DGENRE=Blues
TTITLE0=Gerry Groom, Mick Taylor and Friends - Music Teacher
TTITLE1=Sy Klopps Blues Band - Good Morning Little School
TTITLE2=Bobby Messano and NBO - Sea Of Hope
TTITLE3=Don Henley - Miss Ghost
TTITLE4=Dave Hole - Demolition Man
TTITLE5=Rory Gallagher - Easy Come, Easy Go
TTITLE6=George Thorogood and The Destroyers - As The Years Go Passing By
TTITLE7=Chris Michie - Swee Disposition
TTITLE8=Roy Roberts - She`s So Fine
TTITLE9=Snowy White - Highway To The Sun
TTITLE10=Lefthand Freddy And The Aces - Keep My Cool
TTITLE11=Lonnie Brooks - Holding On The Memories
TTITLE12=Gary Brooker - Give Me Something To Remember You By
TTITLE13=Tim Gonzales - Summer Time
TTITLE14=Lucky Peterson - Who's Been Talkin'
TTITLE15=Guitar Peter - Do You Heart The Rain
EXTD=
EXTT0=
EXTT1=
EXTT2=
EXTT3=
EXTT4=
EXTT5=
EXTT6=
EXTT7=
EXTT8=
EXTT9=
EXTT10=
EXTT11=
EXTT12=
EXTT13=
EXTT14=
EXTT15=
PLAYORDER=
